<svg width="166" height="27" viewBox="0 0 166 27" fill="none" xmlns="http://www.w3.org/2000/svg">
<path d="M0.609375 21L1.80469 16.8867H7.94531L9.11719 21H12.1289L7.42969 4.59375H4.93359L0.246094 21H0.609375ZM3.65625 10.3945C4.13672 8.73047 4.47656 7.48828 4.79297 6.17578H5.03906C5.32031 7.48828 5.63672 8.73047 6.10547 10.3945L7.83984 16.5352H1.89844L3.65625 10.3945ZM23.0508 21V20.6484H16.7812V4.59375H13.8633V21H23.0508ZM29.7539 21.293C34.0664 21.293 36.3516 18.3867 36.3516 12.8203V12.7734C36.3516 7.20703 34.0664 4.30078 29.7539 4.30078C25.4297 4.30078 23.1328 7.20703 23.1328 12.7734V12.8203C23.1328 18.3867 25.4297 21.293 29.7539 21.293ZM29.7539 21.0586C27.2695 21.0586 26.1562 19.1953 26.1562 14.5898V11.1094C26.1562 6.43359 27.2695 4.53516 29.7422 4.53516C32.2266 4.53516 33.3281 6.43359 33.3281 11.1094V14.5898C33.3281 19.1953 32.2266 21.0586 29.7539 21.0586ZM44.918 4.30078C40.5938 4.30078 38.2969 7.20703 38.2969 12.7734V12.8203C38.2969 18.3281 40.5469 21.2344 44.7773 21.293C44.25 23.8008 45.3984 25.0078 48.7031 25.2891L49.1836 22.8633L46.957 22.7344C45.375 22.6523 45 22.3594 45.0352 21.293C49.2656 21.2461 51.5156 18.3398 51.5156 12.8203V12.7734C51.5156 7.20703 49.2305 4.30078 44.918 4.30078ZM48.4922 14.5898C48.4922 19.1953 47.3906 21.0586 44.918 21.0586C42.4336 21.0586 41.3203 19.1953 41.3203 14.5898V11.1094C41.3203 6.43359 42.4336 4.53516 44.9062 4.53516C47.3906 4.53516 48.4922 6.43359 48.4922 11.1094V14.5898ZM52.875 21L54.0703 16.8867H60.2109L61.3828 21H64.3945L59.6953 4.59375H57.1992L52.5117 21H52.875ZM55.9219 10.3945C56.4023 8.73047 56.7422 7.48828 57.0586 6.17578H57.3047C57.5859 7.48828 57.9023 8.73047 58.3711 10.3945L60.1055 16.5352H54.1641L55.9219 10.3945ZM75.375 21V4.94531H79.6172V4.59375H68.2148V4.94531H72.457V21H75.375ZM79.2656 21L80.4609 16.8867H86.6016L87.7734 21H90.7852L86.0859 4.59375H83.5898L78.9023 21H79.2656ZM82.3125 10.3945C82.793 8.73047 83.1328 7.48828 83.4492 6.17578H83.6953C83.9766 7.48828 84.293 8.73047 84.7617 10.3945L86.4961 16.5352H80.5547L82.3125 10.3945ZM95.4375 21V12.8438H97.2656C98.7773 12.8438 99.2695 13.4766 99.6914 15.4805L100.102 17.4961C100.512 19.5 100.758 20.3906 101.191 21H104.52L104.555 20.707C103.969 20.3086 103.547 19.5938 103.031 17.6484L102.527 15.7031C102.012 13.7578 101.32 13.0547 98.9297 12.8789V12.6445C102.258 12.3516 103.559 10.9922 103.559 8.67188V8.625C103.559 6.03516 101.695 4.59375 98.2383 4.59375H92.5195V21H95.4375ZM95.4375 4.94531H97.4883C99.6328 4.94531 100.641 5.97656 100.641 8.42578V9C100.641 11.4844 99.6328 12.4922 97.4883 12.4922H95.4375V4.94531ZM109.148 21V4.59375H106.23V21H109.148ZM111.469 21L114.738 15.4102C115.219 14.5898 115.348 14.332 115.617 13.7812H115.852C116.086 14.3672 116.191 14.6016 116.59 15.375L119.449 21H122.73L117.914 11.8945L122.062 4.59375H121.664L118.84 9.55078C118.441 10.2539 118.125 10.8516 117.844 11.4609H117.609C117.352 10.8516 117.117 10.3242 116.754 9.59766L114.211 4.59375H111.023L115.547 13.3125L111.059 21H111.469ZM127.383 21V4.59375H124.465V21H127.383Z" fill="#E54E1D"/>
<path d="M131.221 13.8906H132.314L134.37 19.374L136.421 13.8906H137.515L134.8 21H133.931L131.221 13.8906ZM130.723 13.8906H131.763L131.943 18.6367V21H130.723V13.8906ZM136.973 13.8906H138.018V21H136.792V18.6367L136.973 13.8906ZM143.462 13.8906H144.683V18.6416C144.683 19.182 144.565 19.6344 144.331 19.999C144.097 20.3636 143.778 20.6387 143.374 20.8242C142.974 21.0065 142.526 21.0977 142.031 21.0977C141.52 21.0977 141.064 21.0065 140.664 20.8242C140.264 20.6387 139.948 20.3636 139.717 19.999C139.489 19.6344 139.375 19.182 139.375 18.6416V13.8906H140.596V18.6416C140.596 18.9834 140.654 19.265 140.771 19.4863C140.889 19.7044 141.055 19.8656 141.27 19.9697C141.484 20.0739 141.738 20.126 142.031 20.126C142.324 20.126 142.576 20.0739 142.788 19.9697C143.003 19.8656 143.169 19.7044 143.286 19.4863C143.403 19.265 143.462 18.9834 143.462 18.6416V13.8906ZM150.986 20.0283V21H146.05V20.0283H150.986ZM150.874 14.6475L146.504 21H145.684V20.2236L150.068 13.8906H150.874V14.6475ZM150.42 13.8906V14.8672H145.713V13.8906H150.42ZM156.704 20.0283V21H152.93V20.0283H156.704ZM153.276 13.8906V21H152.051V13.8906H153.276ZM156.211 16.8594V17.8164H152.93V16.8594H156.211ZM156.68 13.8906V14.8672H152.93V13.8906H156.68ZM158.384 13.8906L160.034 17.2842L161.685 13.8906H163.042L160.649 18.3828V21H159.414V18.3828L157.021 13.8906H158.384ZM165.127 13.8906V21H163.901V13.8906H165.127Z" fill="#E54E1D"/>
</svg>
